<svg xmlns="http://www.w3.org/2000/svg" viewBox="0 0 48 48">
  <rect width="48" height="48" rx="10" fill="#202020"/>
  <path fill="#0ACF83" d="M18 40c3.31 0 6-2.69 6-6v-6h-6c-3.31 0-6 2.69-6 6s2.69 6 6 6Z"/>
  <path fill="#A259FF" d="M12 22c0-3.31 2.69-6 6-6h6v12h-6c-3.31 0-6-2.69-6-6Z"/>
  <path fill="#F24E1E" d="M12 10c0-3.31 2.69-6 6-6h6v12h-6c-3.31 0-6-2.69-6-6Z"/>
  <path fill="#FF7262" d="M24 4h6c3.31 0 6 2.69 6 6s-2.69 6-6 6h-6V4Z"/>
  <path fill="#1ABCFE" d="M36 22c0 3.31-2.69 6-6 6s-6-2.69-6-6 2.69-6 6-6 6 2.69 6 6Z"/>
</svg>
